<svg xmlns="http://www.w3.org/2000/svg" width="1em" height="1em" viewBox="0 0 24 24"><path fill="currentColor" d="m19.695 1.9844c-1.9218-0.032778-3.4685 0.26888-5.1777 1.2109l-0.005859 0.0019531-0.00586 0.0039063c-1.7716 1.242-3.1466 3.1774-3.625 5.2969v0.0019531 0.0039062c-0.03295 0.1857-0.065646 0.3648-0.097656 0.54492h-0.10547v-0.23633l-0.009765-0.023438c-0.53441-1.2173-1.2242-2.4939-2.4043-3.2344l-0.0039063-0.0019531-0.33008-0.17969c-1.2965-0.70761-2.6429-0.90179-4.1055-0.68359l-0.054688 0.0097657-0.03125 0.044922c-0.33546 0.50319-0.35391 0.56255-0.39844 1.0957v0.0039062 0.0058594c0.0010099 0.21005 2.983e-4 0.41754 0.0019531 0.62305-9.992e-4 0.2098-3.195e-4 0.41123-0.0019531 0.61328v0.0058594 0.0058593c0.10246 1.3289 0.83364 2.1508 1.7598 3.0078l0.0058594 0.005859 0.0058593 0.003906c1.1067 0.79743 2.063 1.2048 3.4453 1.0293l0.042969-0.005859 0.03125-0.029297c0.37242-0.37242 0.47806-0.56533 0.53711-1.082l0.0039062-0.027344-0.0097656-0.027344c-0.35777-1.029-0.91511-1.9594-1.707-2.7188l-0.0058593-0.0058593-0.0039063-0.0019531c-0.64764-0.51664-1.062-0.77167-1.9316-0.71289l-0.11719 0.0078125v0.87305l0.076172 0.03125c1.2302 0.52046 1.7966 1.3499 2.375 2.5-0.087701 0.029398-0.17908 0.058972-0.30078 0.09961-0.98685-0.31612-1.7195-0.85496-2.4316-1.623-0.64912-0.88077-0.70682-1.7123-0.63867-2.7812 1.5008 0.23906 2.843 0.4433 3.9121 1.5625 1.9403 2.3795 1.7474 5.3404 1.5371 8.2734-0.4835 0.2234-0.92072 0.44338-1.3438 0.79883l-0.0058593 0.003906-0.0039063 0.003906c-0.70248 0.71945-1.6592 1.6265-2.4434 2.623-0.78411 0.9966-1.4023 2.086-1.4023 3.1836v0.125h11.654v-0.82617l-0.011718-0.027344c-1.002-2.0151-2.724-4.6912-4.8809-5.623l-0.007812-0.003906c-0.10038-0.03628-0.19859-0.07162-0.29688-0.10742 0.0092-0.37816 0.01962-0.75674 0.03125-1.1348 0.12526-3.5438 0.46601-7.1068 3.1758-9.6367l0.001953-0.0019532c1.8418-1.5415 3.9104-1.8347 6.2793-1.752 0.29423 1.0658 0.39091 1.944 0.25977 3.0645-0.41828 1.8736-1.6192 3.3603-3.1133 4.5371-1.4794 1.074-2.9363 1.7186-4.752 1.5195 0.03712-0.16324 0.07532-0.32616 0.12109-0.48828 0.85124-1.9394 1.97-3.8025 3.8535-4.8457 0.31656-0.14927 0.63303-0.30163 0.94726-0.45312l0.046875-0.023438 0.017578-0.050781c0.08464-0.25392 0.08489-0.2527 0.16797-0.50195l0.03125-0.09375-0.083984-0.052734c-0.29687-0.18205-0.31728-0.19238-0.69141-0.3457l-0.044921-0.017578-0.046875 0.017578c-1.0099 0.37656-1.7556 0.94856-2.5293 1.6719l-0.001953 0.0019531-0.001954 0.0019532c-1.4467 1.4625-2.8708 3.491-2.9141 5.6523l-0.001953 0.064454 0.052734 0.039062c0.11118 0.08251 0.21965 0.1612 0.32617 0.24023l0.007813 0.00586 0.009765 0.003906c0.94797 0.48366 1.8724 0.54428 2.8965 0.2832h0.003906l0.005859-0.001953c2.5593-0.87701 4.7918-2.5814 6.1582-4.9316l0.001954-0.0058594 0.003906-0.0058593c0.94989-2.1246 0.88198-4.1365 0.17188-6.2949l-0.027344-0.085938h-0.089844c-0.41546-0.00704-0.83012-0.013673-1.2461-0.017578-0.17545-0.0014999-0.34618-0.0022062-0.51563-0.0039062zm-9.3828 14.65c0.19096 2.3e-5 0.42357 0.019868 0.70117 0.042968 1.7109 0.82567 2.9138 2.8282 3.9434 4.4434v0.003906h-8.7051c0.34885-0.67648 0.69091-1.268 1.1621-1.8711v-0.001953c0.072966-0.09411 0.14746-0.18817 0.22266-0.28516v-0.001953c0.78813-1.0005 1.2571-1.5938 1.625-1.9238 0.36812-0.3302 0.61727-0.4063 1.0508-0.40625z"/></svg>
